<svg viewBox="0 0 40 37" fill="none" xmlns="http://www.w3.org/2000/svg">
<path d="M36.1175 2.42212C31.8363 -1.27038 25.4692 -0.606202 21.5396 3.49745L20.7701 4.3L20.3853 4.70127L20.193 4.90191L20.0968 5.00222L20.0487 5.05238V5.05238C20.0224 5.07974 19.9787 5.07974 19.9525 5.05238V5.05238L19.9044 5.00222L19.8082 4.90191L19.6158 4.70127L19.2311 4.3L18.4615 3.49745C14.5397 -0.606202 8.16486 -1.27038 3.8837 2.42212C-1.02246 6.66019 -1.28027 14.2666 3.11027 18.8605L18.2272 34.6583C18.7164 35.1694 19.1139 35.7419 20.0006 36.8254C21.0826 35.4973 21.2789 35.1673 21.7662 34.6583L36.8831 18.8605C41.2814 14.2666 41.0236 6.66019 36.1175 2.42212Z" fill="#FDAB81"/>
</svg>
