<svg viewBox="0 0 36 36" fill="none" xmlns="http://www.w3.org/2000/svg">
<path d="M18 13.8328C17.1759 13.8331 16.3703 14.0778 15.6853 14.5359C15.0002 14.994 14.4663 15.6449 14.1511 16.4064C13.836 17.1679 13.7537 18.0057 13.9146 18.8139C14.0756 19.6222 14.4726 20.3646 15.0555 20.9472C15.6383 21.5298 16.3808 21.9266 17.1892 22.0872C17.9975 22.2479 18.8353 22.1653 19.5966 21.8498C20.358 21.5344 21.0087 21.0003 21.4666 20.315C21.9244 19.6297 22.1687 18.8241 22.1687 18C22.1679 16.8948 21.7284 15.8351 20.9467 15.0537C20.1651 14.2724 19.1052 13.8332 18 13.8328ZM27.743 10.6297C27.5308 10.0921 27.2105 9.60377 26.8018 9.19508C26.3931 8.7864 25.9048 8.46605 25.3672 8.25391C23.7266 7.60625 19.8203 7.75156 18 7.75156C16.1797 7.75156 12.2773 7.60078 10.632 8.25391C10.0944 8.46605 9.60611 8.7864 9.19743 9.19508C8.78874 9.60377 8.46839 10.0921 8.25625 10.6297C7.60938 12.2703 7.75391 16.1805 7.75391 17.9992C7.75391 19.818 7.60938 23.7234 8.25938 25.3695C8.47152 25.9072 8.79187 26.3955 9.20055 26.8041C9.60923 27.2128 10.0975 27.5332 10.6352 27.7453C12.2758 28.393 16.182 28.2477 18.0031 28.2477C19.8242 28.2477 23.725 28.3984 25.3703 27.7453C25.9079 27.5332 26.3962 27.2128 26.8049 26.8041C27.2136 26.3955 27.534 25.9072 27.7461 25.3695C28.3984 23.7289 28.2484 19.8188 28.2484 18C28.2484 16.1812 28.3984 12.2766 27.7461 10.6305L27.743 10.6297ZM18 24.4062C16.733 24.4062 15.4944 24.0305 14.4409 23.3266C13.3874 22.6227 12.5663 21.6222 12.0814 20.4516C11.5965 19.281 11.4697 17.9929 11.7168 16.7502C11.964 15.5075 12.5742 14.366 13.4701 13.4701C14.366 12.5742 15.5075 11.964 16.7502 11.7168C17.9929 11.4697 19.281 11.5965 20.4516 12.0814C21.6222 12.5663 22.6227 13.3874 23.3266 14.4409C24.0305 15.4944 24.4062 16.733 24.4062 18C24.4073 18.8416 24.2423 19.6751 23.9207 20.4528C23.5991 21.2305 23.1273 21.9371 22.5322 22.5322C21.9371 23.1273 21.2305 23.5991 20.4528 23.9207C19.6751 24.2423 18.8416 24.4073 18 24.4062ZM24.6703 12.8203C24.3745 12.8205 24.0854 12.7329 23.8393 12.5687C23.5933 12.4045 23.4016 12.171 23.2883 11.8978C23.175 11.6246 23.1452 11.3239 23.2029 11.0338C23.2605 10.7436 23.4028 10.4771 23.6119 10.2679C23.821 10.0587 24.0874 9.91624 24.3775 9.85848C24.6676 9.80072 24.9683 9.83028 25.2416 9.94344C25.5149 10.0566 25.7484 10.2482 25.9128 10.4942C26.0771 10.7401 26.1648 11.0292 26.1648 11.325C26.1657 11.5214 26.1277 11.7161 26.0531 11.8978C25.9786 12.0795 25.8688 12.2447 25.7303 12.3839C25.5917 12.5231 25.427 12.6336 25.2457 12.709C25.0643 12.7845 24.8699 12.8233 24.6734 12.8234L24.6703 12.8203ZM31.75 0.5H4.25C3.25544 0.5 2.30161 0.895088 1.59835 1.59835C0.895088 2.30161 0.5 3.25544 0.5 4.25L0.5 31.75C0.5 32.7446 0.895088 33.6984 1.59835 34.4016C2.30161 35.1049 3.25544 35.5 4.25 35.5H31.75C32.7446 35.5 33.6984 35.1049 34.4016 34.4016C35.1049 33.6984 35.5 32.7446 35.5 31.75V4.25C35.5 3.25544 35.1049 2.30161 34.4016 1.59835C33.6984 0.895088 32.7446 0.5 31.75 0.5ZM30.4125 23.1562C30.3117 25.1586 29.8547 26.9328 28.393 28.3906C26.9312 29.8484 25.1586 30.3148 23.1586 30.4102C21.0953 30.5266 14.9094 30.5266 12.8461 30.4102C10.8438 30.3094 9.07578 29.8516 7.61172 28.3906C6.14766 26.9297 5.6875 25.1547 5.59219 23.1562C5.47578 21.0922 5.47578 14.9055 5.59219 12.8438C5.69297 10.8414 6.14453 9.06719 7.61172 7.60938C9.07891 6.15156 10.8516 5.69063 12.8461 5.59531C14.9094 5.47891 21.0953 5.47891 23.1586 5.59531C25.1609 5.69609 26.9344 6.15391 28.393 7.61484C29.8516 9.07578 30.3172 10.8508 30.4125 12.8531C30.5289 14.9094 30.5289 21.0906 30.4125 23.1562Z" fill="url(#paint0_radial_186_187)"/>
<defs>
<radialGradient id="paint0_radial_186_187" cx="0" cy="0" r="1" gradientUnits="userSpaceOnUse" gradientTransform="translate(9.875 35.5) rotate(-90) scale(35 57.6471)">
<stop offset="0.0479712" stop-color="#FFDC7D"/>
<stop offset="0.264279" stop-color="#F46F30"/>
<stop offset="0.545711" stop-color="#C32AA3"/>
<stop offset="0.789337" stop-color="#7232BD"/>
<stop offset="0.980935" stop-color="#4C5FD7"/>
</radialGradient>
</defs>
</svg>
