<svg viewBox="0 0 19 19" fill="none" xmlns="http://www.w3.org/2000/svg">
<path d="M18.1641 0H14.3066C13.7842 0 13.5254 0.63435 13.8916 1.00808L14.7168 1.83912L10.7764 5.8075C9.69238 5.11906 8.4082 4.72075 7.03125 4.72075C3.14941 4.72075 0 7.8925 0 11.8019C0 15.7112 3.14941 18.883 7.03125 18.883C10.9131 18.883 14.0625 15.7112 14.0625 11.8019C14.0625 10.4151 13.667 9.12186 12.9834 8.03018L16.9238 4.06181L17.749 4.89286C18.1201 5.26658 18.75 5.00104 18.75 4.47487V0.590093C18.75 0.265542 18.4863 0 18.1641 0ZM7.03125 15.7358C4.87793 15.7358 3.125 13.9705 3.125 11.8019C3.125 9.63327 4.87793 7.86791 7.03125 7.86791C9.18457 7.86791 10.9375 9.63327 10.9375 11.8019C10.9375 13.9705 9.18457 15.7358 7.03125 15.7358Z" fill="#FDAB81"/>
</svg>
