<svg viewBox="0 0 36 36" fill="none" xmlns="http://www.w3.org/2000/svg">
<path d="M5.5 0.5C2.74219 0.5 0.5 2.74219 0.5 5.5V30.5C0.5 33.2578 2.74219 35.5 5.5 35.5H30.5C33.2578 35.5 35.5 33.2578 35.5 30.5V5.5C35.5 2.74219 33.2578 0.5 30.5 0.5H5.5ZM28.7109 7.0625L20.6016 16.3281L30.1406 28.9375H22.6719L16.8281 21.2891L10.1328 28.9375H6.42188L15.0938 19.0234L5.94531 7.0625H13.6016L18.8906 14.0547L25 7.0625H28.7109ZM25.7578 26.7188L12.4844 9.16406H10.2734L23.6953 26.7188H25.75H25.7578Z" fill="#111111"/>
</svg>
